<svg xmlns="http://www.w3.org/2000/svg" width="800" height="160" viewBox="0 0 800 160">
  <rect width="800" height="160" fill="#0d1117"/>
  <rect y="158" width="800" height="2" fill="#21262d"/>

  <!-- Pixel-art Claude face: 14 cols × 14 rows, 8×8px each, x_start=22 y_start=24 -->
  <!-- Row 0 -->
  <rect x="46" y="24" width="64" height="8" fill="#D97757"/>
  <!-- Row 1 -->
  <rect x="38" y="32" width="80" height="8" fill="#D97757"/>
  <!-- Row 2 -->
  <rect x="30" y="40" width="96" height="8" fill="#D97757"/>
  <!-- Row 3 -->
  <rect x="22" y="48" width="112" height="8" fill="#D97757"/>
  <!-- Row 4 (eyes: cols 2-3 and 10-11 empty) -->
  <rect x="22" y="56" width="16" height="8" fill="#D97757"/>
  <rect x="54" y="56" width="48" height="8" fill="#D97757"/>
  <rect x="118" y="56" width="16" height="8" fill="#D97757"/>
  <!-- Row 5 (eyes) -->
  <rect x="22" y="64" width="16" height="8" fill="#D97757"/>
  <rect x="54" y="64" width="48" height="8" fill="#D97757"/>
  <rect x="118" y="64" width="16" height="8" fill="#D97757"/>
  <!-- Row 6 -->
  <rect x="22" y="72" width="112" height="8" fill="#D97757"/>
  <!-- Row 7 -->
  <rect x="22" y="80" width="112" height="8" fill="#D97757"/>
  <!-- Row 8 (smile: cols 3-10 empty) -->
  <rect x="22" y="88" width="24" height="8" fill="#D97757"/>
  <rect x="110" y="88" width="24" height="8" fill="#D97757"/>
  <!-- Row 9 (smile wider: cols 2-11 empty) -->
  <rect x="22" y="96" width="16" height="8" fill="#D97757"/>
  <rect x="118" y="96" width="16" height="8" fill="#D97757"/>
  <!-- Row 10 -->
  <rect x="22" y="104" width="112" height="8" fill="#D97757"/>
  <!-- Row 11 -->
  <rect x="30" y="112" width="96" height="8" fill="#D97757"/>
  <!-- Row 12 -->
  <rect x="38" y="120" width="80" height="8" fill="#D97757"/>
  <!-- Row 13 -->
  <rect x="46" y="128" width="64" height="8" fill="#D97757"/>

  <text font-family="'Segoe UI', system-ui, -apple-system, sans-serif" font-size="24" font-weight="bold" fill="#e6edf3" x="170" y="65">claude-marketplace</text>
  <text font-family="'Segoe UI', system-ui, -apple-system, sans-serif" font-size="14" fill="#7d8590" x="170" y="89">Skills, workflows, and tools for Claude Code.</text>
  <text font-family="'Courier New', 'Cascadia Code', monospace" font-size="12" fill="#3fb950" x="170" y="112">/plugin marketplace add jzills/claude-marketplace</text>
</svg>
